<svg width="30" height="30" viewBox="0 0 30 30" fill="none" xmlns="http://www.w3.org/2000/svg">
<rect width="30" height="30" rx="5" fill="#0BAD1B"/>
<mask id="mask0_2_1008" style="mask-type:alpha" maskUnits="userSpaceOnUse" x="4" y="4" width="22" height="22">
<rect x="4.41183" y="4.41174" width="21.1765" height="21.1765" fill="#D9D9D9"/>
</mask>
<g mask="url(#mask0_2_1008)">
<path d="M15.0001 21.1764C14.7501 21.1764 14.5407 21.0917 14.3718 20.9223C14.2024 20.7535 14.1177 20.5441 14.1177 20.2941V15.8823H9.70595C9.45595 15.8823 9.24624 15.7976 9.07683 15.6282C8.90801 15.4594 8.82359 15.25 8.82359 15C8.82359 14.75 8.90801 14.5403 9.07683 14.3709C9.24624 14.202 9.45595 14.1176 9.70595 14.1176H14.1177V9.70586C14.1177 9.45586 14.2024 9.24616 14.3718 9.07674C14.5407 8.90792 14.7501 8.82351 15.0001 8.82351C15.2501 8.82351 15.4598 8.90792 15.6292 9.07674C15.798 9.24616 15.8824 9.45586 15.8824 9.70586V14.1176H20.2942C20.5442 14.1176 20.7536 14.202 20.9224 14.3709C21.0918 14.5403 21.1765 14.75 21.1765 15C21.1765 15.25 21.0918 15.4594 20.9224 15.6282C20.7536 15.7976 20.5442 15.8823 20.2942 15.8823H15.8824V20.2941C15.8824 20.5441 15.798 20.7535 15.6292 20.9223C15.4598 21.0917 15.2501 21.1764 15.0001 21.1764Z" fill="white"/>
</g>
</svg>
